<svg width="139" height="52" viewBox="0 0 139 52" fill="none" xmlns="http://www.w3.org/2000/svg">
<path id="Vector" d="M1 28.4459L2.34314 29.0392C3.68627 29.6326 6.37255 30.8192 9.05882 33.0851C11.7451 35.3509 14.4314 38.6958 17.1176 41.4273C19.8039 44.1588 22.4902 46.2769 25.1765 42.8018C27.8627 39.3267 30.549 30.2585 33.2353 31.1485C35.9216 32.0386 38.6078 42.8871 41.2941 47.6589C43.9804 52.4307 46.6667 51.126 49.3529 49.6189C52.0392 48.1119 54.7255 46.4025 57.4118 41.7204C60.098 37.0382 62.7843 29.3833 65.4706 26.3144C68.1569 23.2456 70.8431 24.7628 73.5294 22.0711C76.2157 19.3794 78.902 12.4787 81.5882 9.81683C84.2745 7.15501 86.9608 8.73209 89.6471 12.6043C92.3333 16.4766 95.0196 22.644 97.7059 22.4357C100.392 22.2274 103.078 15.6434 105.765 15.1357C108.451 14.6281 111.137 20.1968 113.824 25.522C116.51 30.8472 119.196 35.929 121.882 32.1767C124.569 28.4244 127.255 15.8379 129.941 9.16949C132.627 2.50103 135.314 1.75051 136.657 1.37526L138 1" stroke="#F0C98C" stroke-width="2" stroke-linecap="round"/>
</svg>
