<svg width="135" height="58" viewBox="0 0 135 58" fill="none" xmlns="http://www.w3.org/2000/svg">
<path id="Vector" d="M1 49.4104L3.01515 49.2568C5.0303 49.1033 9.06061 48.7961 13.0909 49.8659C17.1212 50.9358 21.1515 53.3825 25.1818 55.1298C29.2121 56.877 33.2424 57.9247 37.2727 55.8659C41.303 53.807 45.3333 48.6416 49.3636 49.4377C53.3939 50.2338 57.4242 56.9913 61.4546 49.2878C65.4849 41.5843 69.5152 19.4197 73.5455 9.04693C77.5758 -1.3258 81.6061 0.0933569 85.6364 9.85389C89.6667 19.6144 93.697 37.7163 97.7273 37.7393C101.758 37.7623 105.788 19.7064 109.818 15.2313C113.848 10.7562 117.879 19.8619 121.909 19.7535C125.939 19.6451 129.97 10.3226 131.985 5.66128L134 1" stroke="#9181DB" stroke-width="2" stroke-linecap="round"/>
</svg>
