<svg width="138" height="49" viewBox="0 0 138 49" fill="none" xmlns="http://www.w3.org/2000/svg">
<path id="Vector" d="M1 34.9104L3.01515 34.7568C5.0303 34.6033 9.06061 34.2961 13.0909 35.3659C17.1212 36.4358 21.1515 38.8825 25.1818 40.6298C29.2121 42.377 34.4697 32.5588 38.5 30.5C42.5303 28.4412 45.4697 46.2039 49.5 47C53.5303 47.7961 57.4242 42.4913 61.4546 34.7878C65.4849 27.0843 69.5152 20.9197 73.5455 10.5469C77.5758 0.174207 81.6061 1.59337 85.6364 11.3539C89.6667 21.1144 93.697 23.2163 97.7273 23.2393C101.758 23.2623 106.47 32.9751 110.5 28.5C114.53 24.0249 117.879 5.36193 121.909 5.25352C125.939 5.14511 131.5 10 137 1" stroke="#F0A0A0" stroke-width="2" stroke-linecap="round"/>
</svg>
